<svg width="570" height="570" xmlns="http://www.w3.org/2000/svg">
 <metadata id="metadata8">image/svg+xml</metadata>

 <g>
  <title>background</title>
  <rect x="-1" y="-1" width="572" height="572" id="canvas_background" fill="none"/>
 </g>
 <g>
  <title>Layer 1</title>
  <ellipse stroke="#ffffff" fill="#1A202C" stroke-width="0" cx="285.000002" cy="285.000002" id="svg_1" rx="280" ry="280"/>
  <g transform="matrix(0.5353724822669328,0,0,-0.5353724822669328,34.71129643917084,1299.669085960176) " id="g10" fill-rule="nonzero" fill="#172537">
   <g transform="translate(126.53851318359375,0) scale(0.10000000149011612) " id="g12">
    <path id="path14" d="m1182.288803,18434.658186c-220.21,0 -399.4,179.2 -399.4,399.4c0,220.22 179.19,399.42 399.4,399.42c220.22,0 399.41,-179.2 399.41,-399.42c0,-220.2 -179.19,-399.4 -399.41,-399.4zm3156.35,5160.21c-248.81,49.51 -505.65,75.29 -766.86,84.15c-54.29,1.85 -107.39,8.19 -162.13,8.19c-93.86,0 -185.52,-8.65 -278.03,-14.04c-2484.7,-144.71 -4456.58,-2199.58 -4456.58,-4720.58c0,-379.19 49.3555,-746.08 133.555,-1099.49l728.984,0c-99.574,350.04 -156.383,717.93 -156.383,1099.45c0,1976.39 1431.744,3621.33 3311.784,3960.87c153.34,27.68 309.77,45.26 468.54,55.01l-1871.41,-3241.37c-35.78,4.31 -70.9,10.87 -107.83,10.87c-499.17,0 -903.83,-404.66 -903.83,-903.85c0,-499.17 404.66,-903.82 903.83,-903.82c499.17,0 903.85,404.65 903.85,903.82c0,203.82 -69.96,389.79 -183.78,540.99l2057.57,3563.84l378.72,655.96" fill-rule="nonzero" fill="#72c52c"/>
    <path id="path16" d="m4355.778803,20568.168186c-78.58,0 -151.45,23.6 -213.29,62.95c-111.49,70.94 -186.13,194.82 -186.13,336.46c0,220.21 179.2,399.41 399.42,399.41c214.64,0 388.89,-170.61 397.63,-383.16c0.24,-5.51 1.65,-10.69 1.65,-16.25c0,-220.21 -179.08,-399.41 -399.28,-399.41zm364.7,2931.16l-366.47,-634.72c1766.39,-426.69 3084.1,-2016.45 3084.1,-3912.06c0,-496.82 -94.69,-970.86 -259.92,-1410.66c-55.3,-147.23 -117.58,-290.77 -189.07,-429.28l-1913.33,3314c113.81,151.19 183.77,337.17 183.77,540.98c0,499.17 -404.66,903.83 -903.84,903.83c-499.17,0 -903.84,-404.66 -903.84,-903.83c0,-499.17 404.67,-903.84 903.84,-903.84c36.94,0 72.06,6.56 107.84,10.87l2094.65,-3628.05l374.67,-648.93c170.32,190.07 325.91,392.74 464.05,608.61c78.4,122.48 151.52,248.35 218.59,378.18c335.83,650.07 528.75,1386.02 528.75,2168.16c0,2159.55 -1447.3,3977.75 -3423.79,4546.74" fill-rule="nonzero" fill="#56b8d7"/>
    <path id="path18" d="m4611.088803,17521.298186c220.2,0 399.4,-179.07 399.4,-399.29c0,-220.21 -179.2,-399.28 -399.4,-399.28c-220.22,0 -399.42,179.07 -399.42,399.28c0,220.22 179.2,399.29 399.42,399.29zm1683.36,-1374.61c-732.37,-752.77 -1754.08,-1222.601 -2884.8,-1222.601c-1249.17,0 -2367.33,571.561 -3106.81,1466.841c-99.04,119.91 -188.82,247.3 -273.69,378.26l3749.64,0c137.45,-323.86 458.3,-551.05 832.28,-551.05c499.17,0 903.85,404.65 903.85,903.84c0,499.17 -404.68,903.83 -903.85,903.83c-373.98,0 -694.83,-227.19 -832.28,-551.05l-4113.047,0l-752.262,0c80.407,-244.72 180.243,-480.3 297.649,-705.57c67.687,-129.9 141.508,-255.79 220.547,-378.26c842.863,-1306.13 2307.893,-2172.97 3977.973,-2172.97c1259.55,0 2401.16,495.129 3249.38,1297.23l-364.58,631.5" fill-rule="nonzero" fill="#f4c909"/>
   </g>
  </g>
 </g>
</svg>